<?xml version="1.0" standalone="no"?>
<!DOCTYPE svg PUBLIC "-//W3C//DTD SVG 20010904//EN"
 "http://www.w3.org/TR/2001/REC-SVG-20010904/DTD/svg10.dtd">
<svg version="1.0" xmlns="http://www.w3.org/2000/svg"
 width="545.000000pt" height="545.000000pt" viewBox="0 0 545.000000 545.000000"
 preserveAspectRatio="xMidYMid meet">

<g transform="translate(0.000000,545.000000) scale(0.100000,-0.100000)"
fill="#000000" stroke="none">
<path d="M2073 4828 c-273 -271 -522 -526 -554 -566 -67 -84 -129 -205 -156
-307 -17 -67 -18 -148 -18 -1720 l0 -1650 26 -56 c33 -69 91 -129 161 -166
l53 -28 1065 -3 1065 -2 -647 647 c-357 357 -648 653 -648 658 0 6 432 442
960 970 l961 959 -878 878 c-483 483 -881 878 -886 878 -4 0 -231 -222 -504
-492z"/>
<path d="M2913 1974 c-9 -4 -13 -36 -13 -112 0 -58 3 -103 6 -100 3 3 5 49 5
102 l1 97 35 -3 c63 -5 71 -55 14 -84 -13 -7 -19 -13 -14 -15 5 -2 24 -26 42
-52 18 -27 35 -46 38 -43 3 2 -9 24 -25 48 l-30 43 24 28 c27 32 29 46 11 70
-12 18 -72 31 -94 21z"/>
<path d="M3652 1879 c-2 -90 1 -108 14 -113 9 -3 21 -3 27 1 7 4 3 9 -9 13
-16 6 -20 20 -25 106 l-5 99 -2 -106z"/>
<path d="M3373 1924 c-6 -13 -7 -24 -2 -24 5 0 9 -26 9 -59 0 -64 16 -89 47
-75 16 7 15 8 -4 11 -26 5 -36 33 -31 84 2 26 9 35 28 40 24 7 24 7 2 8 -13 1
-26 10 -30 20 -7 19 -8 18 -19 -5z"/>
<path d="M3082 1897 c-18 -21 -24 -62 -13 -89 18 -49 69 -59 106 -22 21 22 19
87 -3 107 -22 20 -75 22 -90 4z m84 -22 c25 -38 8 -89 -29 -93 -16 -2 -35 2
-43 9 -17 14 -19 80 -2 97 20 20 56 14 74 -13z"/>
<path d="M3247 1903 c-4 -3 -7 -17 -7 -30 0 -17 9 -27 36 -38 49 -20 43 -48
-11 -56 -22 -3 -35 -7 -30 -8 6 -1 20 -4 32 -7 14 -4 28 1 42 15 27 27 15 54
-30 70 -42 14 -36 44 11 52 l35 6 -36 2 c-20 0 -39 -2 -42 -6z"/>
<path d="M3498 1898 c-16 -13 -21 -38 -19 -85 1 -30 42 -56 75 -47 37 9 32 21
-7 16 -37 -4 -63 17 -53 43 4 10 19 15 51 15 40 0 45 2 45 23 0 13 -5 28 -12
35 -16 16 -60 15 -80 0z m70 -10 c25 -25 13 -38 -33 -38 -30 0 -45 4 -45 13 0
19 21 37 45 37 12 0 26 -5 33 -12z"/>
<path d="M3745 1886 c-39 -59 11 -140 71 -118 l29 10 -32 1 c-47 1 -63 11 -63
37 0 22 4 24 50 24 53 0 61 10 40 51 -16 29 -75 26 -95 -5z m84 -5 c14 -25 5
-31 -41 -31 -24 0 -38 5 -38 13 0 37 62 51 79 18z"/>
<path d="M3905 1886 c-37 -55 10 -139 66 -120 22 8 22 9 -11 14 -25 4 -38 13
-48 33 -20 40 2 80 48 88 l35 6 -37 2 c-30 1 -41 -4 -53 -23z"/>
<path d="M4047 1892 c-19 -21 -22 -73 -7 -102 14 -26 57 -34 86 -15 20 13 24
24 24 65 0 39 -4 52 -19 60 -30 15 -66 12 -84 -8z m77 -8 c19 -18 21 -75 4
-92 -19 -19 -66 -15 -78 7 -24 45 -2 101 40 101 10 0 26 -7 34 -16z"/>
<path d="M4212 1835 c1 -80 1 -80 7 -20 3 33 10 66 15 74 6 9 5 12 -2 7 -5 -3
-13 0 -15 6 -3 7 -5 -23 -5 -67z"/>
<path d="M4270 1901 c23 -6 25 -13 30 -76 l5 -70 6 65 c7 73 -1 90 -40 89
l-26 -1 25 -7z"/>
<path d="M4355 1903 c33 -8 40 -21 46 -86 l6 -62 1 66 c2 72 -8 90 -47 88 -21
-1 -22 -2 -6 -6z"/>
<path d="M3264 1583 c-9 -27 -27 -74 -40 -105 -24 -61 -16 -90 11 -38 13 26
21 30 56 30 33 0 41 -4 49 -24 10 -28 30 -43 30 -24 1 19 -74 208 -82 208 -3
0 -14 -21 -24 -47z m35 -25 c25 -66 24 -68 -8 -68 -35 0 -35 -1 -19 51 13 45
16 47 27 17z"/>
<path d="M3747 1623 c-4 -3 -7 -45 -7 -93 0 -92 13 -128 44 -117 20 8 21 27 1
27 -12 0 -15 17 -15 95 0 87 -5 107 -23 88z"/>
<path d="M4102 1619 c2 -6 8 -10 13 -10 5 0 11 4 13 10 2 6 -4 11 -13 11 -9 0
-15 -5 -13 -11z"/>
<path d="M3994 1595 c-4 -11 -12 -24 -18 -28 -8 -6 -7 -10 2 -14 7 -3 12 -26
12 -63 0 -61 14 -85 46 -78 27 5 28 26 2 30 -21 3 -23 8 -23 53 0 44 3 50 23
53 28 4 29 22 2 22 -12 0 -24 9 -29 23 -9 21 -9 21 -17 2z"/>
<path d="M3410 1492 c0 -48 4 -82 10 -82 6 0 10 24 10 53 0 42 5 58 21 73 32
29 53 8 59 -60 3 -31 10 -57 15 -59 13 -3 18 63 8 104 -12 43 -34 57 -72 42
-21 -8 -32 -8 -40 0 -8 8 -11 -12 -11 -71z"/>
<path d="M3594 1554 c-18 -15 -17 -15 13 -10 18 3 40 3 48 0 29 -11 15 -31
-25 -38 -30 -5 -44 -13 -52 -32 -10 -21 -8 -28 10 -47 19 -18 26 -20 51 -10
21 8 32 8 40 0 8 -8 11 9 11 59 0 41 -5 75 -12 82 -17 17 -61 15 -84 -4z m72
-91 c-3 -8 -6 -17 -6 -19 0 -2 -13 -4 -30 -4 -36 0 -41 26 -7 39 28 11 50 3
43 -16z"/>
<path d="M3825 1549 c4 -13 18 -48 31 -78 29 -65 29 -66 3 -92 -23 -23 -17
-39 9 -23 9 6 31 51 49 100 34 95 38 114 25 114 -5 0 -17 -27 -27 -60 -10 -33
-21 -58 -24 -54 -3 3 -15 28 -26 56 -21 53 -54 83 -40 37z"/>
<path d="M4100 1490 c0 -47 4 -80 10 -80 6 0 10 33 10 80 0 47 -4 80 -10 80
-6 0 -10 -33 -10 -80z"/>
<path d="M4191 1544 c-28 -36 -27 -79 4 -109 25 -25 41 -30 69 -19 28 11 17
24 -18 24 -37 0 -46 12 -46 60 0 34 29 55 62 45 15 -5 19 -3 16 6 -3 8 -18 15
-35 17 -24 2 -36 -3 -52 -24z"/>
<path d="M4332 1558 c-22 -22 -13 -47 28 -73 47 -29 44 -45 -6 -45 -24 0 -34
-4 -32 -12 10 -29 83 -20 93 11 9 29 -5 51 -42 66 -42 18 -39 41 6 38 20 0 31
3 28 10 -5 17 -60 20 -75 5z"/>
</g>
</svg>
